<?xml version="1.0" encoding="UTF-8"?><svg xmlns="http://www.w3.org/2000/svg" viewBox="0 0 652 652"><defs><style>.d{fill:#fff;}.e{fill:#353535;}</style></defs><g id="a"/><g id="b"><g id="c"><rect class="d" x="0" y="0" width="652" height="652" rx="326" ry="326"/><path class="e" d="M213.97,288.41c0-59.73-2.51-104-6.27-121.12,6.68,.42,20.88,1.25,32.58,1.25,28.82,0,52.63-1.25,84.37-1.25,86.87,0,105.25,40.51,105.25,72.26,0,29.24-18.79,53.04-42.6,63.49,46.78,14.62,71,43.02,71,82.7,0,54.71-45.94,98.99-129.48,98.99-31.32,0-67.24-2.92-73.93-2.92-14.62,0-36.34,1.25-45.53,2.09,2.51-20.47,4.59-70.17,4.59-121.96v-73.51Zm74.34,.84c0,1.67,.42,2.51,2.09,2.92,7.52,1.25,28.82,1.67,32.58,1.67,10.02,0,18.38-.84,23.81-5.01,11.28-8.77,14.62-23.39,14.62-33.41,0-24.64-16.71-44.27-51.37-44.27-11.28,0-18.38,.84-20.47,1.67-.84,.42-1.25,1.25-1.25,2.51v73.93Zm75.18,67.66c-12.53-12.95-30.91-17.96-50.96-18.79-7.1-.42-20.47-.42-22.55,0-1.25,.42-1.67,.84-1.67,2.09v20.88c0,24.64,1.25,66.41,2.09,68.08,1.67,2.51,12.95,10.02,40.1,10.02,24.64,0,47.2-16.71,47.2-46.78,0-9.61-1.25-22.14-14.2-35.5Z"/></g></g></svg>