<svg xmlns="http://www.w3.org/2000/svg" viewBox="0 0 153.36 9.4" width="257" height="36">
<g id="a"/><g id="b"><g id="c"><g>
<path d="M.2,3.65C.2,1.86,.11,.65,0,.17c.16,.01,.62,.04,1.06,.04,.38,0,1.14-.04,2.19-.05,2.15,.01,3.55,.36,4.61,1.43,.61,.61,1.15,1.62,1.15,3.05s-.65,2.61-1.33,3.27c-.73,.71-1.77,1.44-4.02,1.44-.49,0-1.04-.04-1.43-.06-.74-.06-1.2-.13-2.15-.06,.04-.59,.12-1.64,.12-3.45V3.65Zm2.18,1.39c0,1.27,.01,1.54,.02,1.76,.02,.53,.02,.84,.11,.94,.12,.12,.7,.3,1.31,.3,.77,0,1.49-.12,2.12-.79,.56-.6,.72-1.49,.72-2.29s-.14-1.56-.65-2.29c-.59-.84-1.62-1.25-2.73-1.25-.4,0-.7,.05-.82,.1-.05,.02-.06,.05-.06,.08-.02,.24-.02,.86-.02,1.87v1.57Z"/><path d="M11.12,3.65c0-1.72-.04-2.94-.2-3.48,.34,.02,.66,.04,1.01,.04,.19,0,1.5-.05,2.07-.05,1.19,0,1.96,.17,2.45,.43,.64,.34,1.25,1.02,1.25,2.05,0,.97-.58,1.83-1.5,2.39,.65,.98,1.44,2.11,2.17,2.97,.58,.66,.94,1.02,1.21,1.16-.28,.11-.95,.13-1.48,.13-.97,0-1.38-.24-1.73-.56-.73-.68-1.63-2.36-1.99-2.89-.02-.04-.07-.07-.13-.07h-.96s-.05,.01-.05,.06v.26c0,1.32,.07,2.51,.17,3.14-.22-.02-.6-.04-1.02-.04s-1.22,.02-1.45,.06c.1-.64,.18-2.02,.18-3.5V3.65Zm2.12,.59c0,.12,.01,.13,.05,.14,.2,.1,.59,.16,1.08,.16,.28,0,.49-.05,.61-.13,.29-.2,.58-.59,.58-1.26,0-1.27-.97-1.73-1.7-1.73-.25,0-.49,.01-.58,.05-.04,.02-.04,.05-.04,.1v2.67Z"/><path d="M20.41,8.16c0-.54,.36-1.21,1.2-1.21,.68,0,1.19,.52,1.19,1.19s-.49,1.21-1.2,1.21c-.83,0-1.19-.66-1.19-1.19Z"/><path d="M28.55,2.01c.1-.65,.18-1.25,.28-1.8,.04-.17,.07-.22,.11-.22,.07,0,.12,.08,.22,.22,.34,.48,.73,1.08,1.19,1.75l2.53,3.78,1.92-2.91c1-1.46,1.27-1.88,1.58-2.36,.25-.38,.31-.47,.4-.47,.07,0,.11,.06,.16,.38,.08,.62,.17,1.28,.24,1.91,.36,2.75,.82,6.08,1.07,6.94-.13-.02-.44-.04-1.04-.04s-1.18,.01-1.48,.06c0-1.13-.23-3.06-.34-4.58-.92,1.58-2.15,3.42-2.76,4.64-.06,.1-.12,.07-.17,0-.59-1.24-1.98-3.44-2.61-4.58-.13,1.79-.25,3.44-.26,4.5-.24-.04-.72-.04-.92-.04-.6,0-1.03,.02-1.25,.06,.22-.95,.77-4.55,1.15-7.24Z"/><path d="M40.43,3.65c0-1.99-.08-3.08-.2-3.48,.29,.04,.82,.04,1.3,.04h2.99c.48,0,1.08,0,1.31-.08-.05,.31-.13,1.01-.13,1.86-.24-.16-.58-.24-1.34-.31-.43-.04-1.25-.06-1.68-.06-.02,0-.05,.02-.05,.05V3.68s.02,.06,.05,.06c.34,.01,1.28,0,1.75-.01,.84-.02,1.01-.06,1.19-.12-.08,.52-.13,1.42-.12,1.86-.26-.16-.5-.24-1.08-.29-.37-.04-1.38-.05-1.74-.05-.02,0-.05,.04-.05,.06v.36c0,1.8,.02,2.09,.08,2.15,.04,.04,.17,.07,.29,.08,.36,.04,.65,.05,1.15,.05,.86,0,1.62-.08,2.11-.31-.16,.53-.31,1.28-.35,1.72-.06,.04-.28,.05-.76,.05-1.57,0-2.55-.08-3.47-.08-.68,0-1.18,.02-1.4,.05,.05-.47,.16-1.64,.16-3.49V3.65Z"/><path d="M48.01,3.65c0-1.79-.1-3-.2-3.48,.16,.01,.62,.04,1.06,.04,.38,0,1.14-.04,2.19-.05,2.15,.01,3.55,.36,4.61,1.43,.61,.61,1.15,1.62,1.15,3.05s-.65,2.61-1.33,3.27c-.73,.71-1.77,1.44-4.02,1.44-.49,0-1.04-.04-1.43-.06-.74-.06-1.2-.13-2.15-.06,.04-.59,.12-1.64,.12-3.45V3.65Zm2.18,1.39c0,1.27,.01,1.54,.02,1.76,.02,.53,.02,.84,.11,.94,.12,.12,.7,.3,1.31,.3,.77,0,1.49-.12,2.12-.79,.56-.6,.72-1.49,.72-2.29s-.14-1.56-.65-2.29c-.59-.84-1.62-1.25-2.73-1.25-.4,0-.7,.05-.82,.1-.05,.02-.06,.05-.06,.08-.02,.24-.02,.86-.02,1.87v1.57Z"/><path d="M57.67,8.16c0-.54,.36-1.21,1.2-1.21,.68,0,1.19,.52,1.19,1.19s-.49,1.21-1.2,1.21c-.83,0-1.19-.66-1.19-1.19Z"/><path d="M65.24,3.65c0-1.72-.07-2.99-.18-3.48,.19,.01,.6,.04,.94,.04,.83,0,1.51-.04,2.42-.04,2.49,0,3.02,1.16,3.02,2.08,0,.84-.54,1.52-1.22,1.82,1.34,.42,2.04,1.24,2.04,2.38,0,1.57-1.32,2.84-3.72,2.84-.9,0-1.93-.08-2.12-.08-.42,0-1.04,.04-1.31,.06,.07-.59,.13-2.02,.13-3.5V3.65Zm2.13,.02s.01,.07,.06,.08c.22,.04,.83,.05,.94,.05,.29,0,.53-.02,.68-.14,.32-.25,.42-.67,.42-.96,0-.71-.48-1.27-1.48-1.27-.32,0-.53,.02-.59,.05-.02,.01-.04,.04-.04,.07V3.67Zm2.16,1.94c-.36-.37-.89-.52-1.46-.54-.2-.01-.59-.01-.65,0-.04,.01-.05,.02-.05,.06v.6c0,.71,.04,1.91,.06,1.96,.05,.07,.37,.29,1.15,.29,.71,0,1.35-.48,1.35-1.34,0-.28-.04-.64-.41-1.02Z"/><path d="M75.85,7.29s-.05,.01-.06,.04c-.29,.73-.49,1.37-.62,1.91-.23-.02-.48-.04-.98-.04-.59,0-1.06,.04-1.25,.06,.35-.64,.9-1.73,1.69-3.39l2.42-5.18c.26-.56,.35-.68,.46-.68,.07,0,.18,.11,.44,.68,.2,.42,1.46,3.07,2.53,5.42,.56,1.25,1.25,2.58,1.67,3.13-.48-.02-.92-.04-1.1-.04-.62,0-1.33,.02-1.61,.06-.23-.55-.58-1.43-.82-1.93-.01-.02-.02-.04-.06-.04h-2.71Zm2.19-1.39s.05-.02,.04-.06l-.91-2.24-.89,2.24s-.01,.06,.02,.06h1.74Z"/><path d="M83.42,3.65c0-1.72-.05-2.99-.18-3.47,.18,.02,.65,.02,1.02,.02,.8,0,1.31-.04,1.48-.07-.06,.49-.13,1.81-.13,3.51v2.11c0,1.32,.06,3.08,.16,3.48-.16-.01-.56-.04-1.04-.04-.52,0-1.22,.04-1.43,.06,.07-.58,.13-2.02,.13-3.5V3.65Z"/><path d="M88.6,3.65c0-1.72-.04-2.94-.2-3.48,.34,.02,.66,.04,1.01,.04,.19,0,1.5-.05,2.07-.05,1.19,0,1.96,.17,2.45,.43,.64,.34,1.25,1.02,1.25,2.05,0,.97-.58,1.83-1.5,2.39,.65,.98,1.44,2.11,2.17,2.97,.58,.66,.94,1.02,1.21,1.16-.28,.11-.95,.13-1.48,.13-.97,0-1.38-.24-1.73-.56-.73-.68-1.63-2.36-1.99-2.89-.02-.04-.07-.07-.13-.07h-.96s-.05,.01-.05,.06v.26c0,1.32,.07,2.51,.17,3.14-.22-.02-.6-.04-1.02-.04s-1.22,.02-1.45,.06c.1-.64,.18-2.02,.18-3.5V3.65Zm2.12,.59c0,.12,.01,.13,.05,.14,.2,.1,.59,.16,1.08,.16,.28,0,.49-.05,.61-.13,.29-.2,.58-.59,.58-1.26,0-1.27-.97-1.73-1.7-1.73-.25,0-.49,.01-.58,.05-.04,.02-.04,.05-.04,.1v2.67Z"/><path d="M99.62,7.29s-.05,.01-.06,.04c-.29,.73-.49,1.37-.62,1.91-.23-.02-.48-.04-.98-.04-.59,0-1.05,.04-1.25,.06,.35-.64,.9-1.73,1.69-3.39l2.42-5.18c.26-.56,.35-.68,.46-.68,.07,0,.18,.11,.44,.68,.2,.42,1.46,3.07,2.53,5.42,.56,1.25,1.25,2.58,1.67,3.13-.48-.02-.92-.04-1.1-.04-.62,0-1.33,.02-1.61,.06-.23-.55-.58-1.43-.81-1.93-.01-.02-.02-.04-.06-.04h-2.71Zm2.19-1.39s.05-.02,.04-.06l-.91-2.24-.89,2.24s-.01,.06,.02,.06h1.74Z"/><path d="M109.38,4.29c.64-.61,1.39-1.48,2.25-2.66,.25-.34,.85-1.25,.94-1.48,.2,.02,.48,.05,.68,.05,.91,0,1.66-.04,1.97-.07-.31,.24-1.04,.85-1.78,1.62-.85,.88-1.8,1.94-2.11,2.34,.46,.67,1.82,2.34,2.85,3.45,1.15,1.25,1.51,1.5,1.79,1.62-.13,.1-.79,.13-1.19,.13-1.38,0-1.99-.1-2.93-1.25-.85-1.06-1.86-2.41-2.48-3.37v1.08c0,1.32,.06,3.08,.16,3.48-.16-.01-.49-.04-.92-.04-.53,0-1.31,.02-1.55,.07,.07-.58,.13-2.03,.13-3.51V3.65c0-1.72-.05-3-.18-3.48,.18,.02,.65,.04,1.02,.04,.8,0,1.19-.02,1.47-.06-.06,.49-.13,1.8-.13,3.5v.65Z"/><path d="M116.13,.06c.38,.11,1.02,.14,2.15,.14h4.14c.91,0,1.81-.05,2.1-.13-.13,.65-.19,1.35-.2,1.96-.28-.2-.72-.3-1.36-.36-.42-.04-.78-.06-1.74-.06V5.76c0,1.32,.08,2.84,.14,3.48-.19-.02-.53-.04-.96-.04-.66,0-1.14,.02-1.5,.06,.07-.58,.13-2.02,.13-3.5V1.61c-.48,0-.78,0-1.51,.04-.97,.06-1.25,.12-1.72,.28,.12-.41,.28-1.37,.32-1.86Z"/><path d="M126.39,7.29s-.05,.01-.06,.04c-.29,.73-.49,1.37-.62,1.91-.23-.02-.48-.04-.98-.04-.59,0-1.05,.04-1.25,.06,.35-.64,.9-1.73,1.69-3.39l2.42-5.18c.26-.56,.35-.68,.46-.68,.07,0,.18,.11,.44,.68,.2,.42,1.46,3.07,2.53,5.42,.56,1.25,1.25,2.58,1.67,3.13-.48-.02-.92-.04-1.1-.04-.62,0-1.33,.02-1.61,.06-.23-.55-.58-1.43-.82-1.93-.01-.02-.02-.04-.06-.04h-2.71Zm2.19-1.39s.05-.02,.04-.06l-.91-2.24-.89,2.24s-.01,.06,.02,.06h1.74Z"/><path d="M133.99,3.65c0-1.72-.04-2.94-.2-3.48,.34,.02,.66,.04,1.01,.04,.19,0,1.5-.05,2.08-.05,1.19,0,1.96,.17,2.45,.43,.64,.34,1.25,1.02,1.25,2.05,0,.97-.58,1.83-1.5,2.39,.65,.98,1.44,2.11,2.17,2.97,.58,.66,.94,1.02,1.21,1.16-.28,.11-.95,.13-1.48,.13-.97,0-1.38-.24-1.73-.56-.73-.68-1.63-2.36-1.99-2.89-.02-.04-.07-.07-.13-.07h-.96s-.05,.01-.05,.06v.26c0,1.32,.07,2.51,.17,3.14-.22-.02-.6-.04-1.02-.04s-1.22,.02-1.45,.06c.1-.64,.18-2.02,.18-3.5V3.65Zm2.12,.59c0,.12,.01,.13,.05,.14,.2,.1,.59,.16,1.08,.16,.28,0,.49-.05,.61-.13,.29-.2,.58-.59,.58-1.26,0-1.27-.97-1.73-1.7-1.73-.25,0-.49,.01-.58,.05-.04,.02-.04,.05-.04,.1v2.67Z"/><path d="M143.31,3.65c0-1.72-.05-2.99-.18-3.47,.18,.02,.65,.02,1.02,.02,.8,0,1.31-.04,1.47-.07-.06,.49-.13,1.81-.13,3.51v2.11c0,1.32,.06,3.08,.16,3.48-.16-.01-.56-.04-1.04-.04-.52,0-1.22,.04-1.43,.06,.07-.58,.13-2.02,.13-3.5V3.65Z"/><path d="M147.62,6.67c.48,.59,1.39,1.27,2.41,1.27,.75,0,1.12-.37,1.12-.88,0-.4-.14-.71-1-1.25l-.62-.4c-1.44-.9-1.75-1.8-1.75-2.73,0-1.46,1.17-2.69,3.09-2.69,.54,0,.96,.05,1.3,.1,.56,.08,.86,.12,.96,.12-.04,.16-.13,1.18-.13,2.13-.25-.29-.89-.95-2.07-.95-.73,0-1.07,.43-1.07,.86,0,.38,.11,.68,.82,1.14l.64,.41c1.54,1,2.05,1.64,2.05,2.76,0,.83-.42,1.79-1.32,2.31-.71,.42-1.58,.52-2.1,.52-.83,0-1.93-.19-2.46-.54,.06-.26,.16-1.43,.14-2.19Z"/></g></g></g></svg>