<?xml version="1.0" encoding="utf-8"?>
<!-- Generator: Adobe Illustrator 26.1.0, SVG Export Plug-In . SVG Version: 6.00 Build 0)  -->
<svg version="1.1" id="Layer_1" xmlns="http://www.w3.org/2000/svg" xmlns:xlink="http://www.w3.org/1999/xlink" x="0px" y="0px"
	 viewBox="0 0 1249 782.7" style="enable-background:new 0 0 1249 782.7;" xml:space="preserve">
<style type="text/css">
	.st0{opacity:0.1;fill:#2196F3;enable-background:new    ;}
	.st1{fill:url(#SVGID_1_);}
	.st2{fill:#FFFFFF;}
	.st3{opacity:0.1;enable-background:new    ;}
	.st4{fill:#CF6F80;}
	.st5{fill:#2196F3;}
	.st6{fill:#3F3D56;}
	.st7{fill:#512E4E;}
	.st8{opacity:0.1;}
	.st9{fill:#535461;}
	.st10{fill:#9D9CB5;}
	.st11{fill:none;stroke:#535461;stroke-width:2;stroke-miterlimit:10;}
	.st12{fill:url(#SVGID_00000036936526181666114730000002846614339706670495_);}
	.st13{fill:#1D2366;}
	.st14{fill:#FFB0B1;}
	.st15{fill:#C7DAF5;}
	.st16{opacity:3.000000e-02;enable-background:new    ;}
	.st17{fill:#DCE7FF;}
	.st18{fill:#591D4B;}
	.st19{fill:#BE8B87;}
	.st20{opacity:0.1;fill:#FFFFFF;enable-background:new    ;}
	.st21{fill:#EFC8C4;}
	.st22{fill:#727A9C;}
</style>
<path class="st0" d="M1049.3,480.8h55.7c-0.5,28.1-6.1,55.7-18.5,81.2c-10.3,21.2-24.5,39.7-41.4,55.8v-88h4.2V480.8z"/>
<path class="st0" d="M1105,476.5h-55.7V360.9h30.1C1095.1,397.4,1105,437.4,1105,476.5z"/>
<g>
	<ellipse class="st0" cx="439.1" cy="766.7" rx="97.4" ry="15.7"/>
	<ellipse class="st0" cx="968.8" cy="767.1" rx="121.6" ry="15.7"/>
	<path class="st0" d="M85.6,338.2h101.5v138.3H93c-0.2,1.4-0.5,2.8-0.8,4.3h94.8v111.6c-0.2,0-0.3-0.1-0.5-0.2
		c-2.7-1.1-5.3-2.2-8-3.4l-1.7-0.8c-2.7-1.3-5.3-2.6-8-4c-0.9-0.5-1.9-1-2.8-1.5c-14.8-8.3-28.3-18.8-39.9-31.2
		c-0.3-0.3-0.7-0.7-1-1c-1.6-1.8-3.2-3.5-4.8-5.4l-1.7-2c-1.8-2.2-3.6-4.5-5.3-6.8c-0.2-0.3-0.5-0.7-0.8-1
		c-7-9.6-12.7-20.1-17.2-31.1c-0.1-0.3-0.3-0.7-0.4-1c-1.4-3.5-2.6-7.1-3.7-10.7c-0.5-1.5-0.9-3-1.3-4.6c-0.1-0.5-0.3-0.9-0.4-1.4
		c-5.7-22.2-6.3-45.2-6.3-68.1c0-2.7,0-5.4,0-8c0-9.2,0.1-18.6,0.3-27.9c0-2.4,0.1-4.8,0.1-7.2c0.1-6.1,0.3-12.3,0.6-18.4
		c0.1-1.7,0.1-3.4,0.2-5.1c0-1,0.1-2,0.2-2.9C85.2,345.2,85.4,341.7,85.6,338.2z"/>
	<path class="st0" d="M187.1,184.2h-55.7c9-14.2,18.9-27.8,29.6-40.8c8.3-10.2,17-20.1,26.1-29.6V184.2z"/>
	<path class="st0" d="M187.1,188.5v145.5H85.9c0-0.4,0.1-0.9,0.1-1.3c0.1-1.1,0.2-2.3,0.3-3.4c0.1-1.3,0.2-2.7,0.4-4
		s0.3-2.9,0.4-4.4s0.3-2.9,0.5-4.4s0.3-2.9,0.5-4.3s0.3-2.9,0.5-4.3c0.2-1.2,0.3-2.4,0.5-3.6c0.2-1.7,0.5-3.4,0.7-5.1
		c0-0.2,0.1-0.5,0.1-0.8c1.8-12.3,4.3-24.5,7.4-36.5c3.3-12.6,7.5-25,12.6-37c5.4-12.6,11.7-24.7,18.9-36.4L187.1,188.5z"/>
	<path class="st0" d="M211.3,338.2v138.3h216.8V338.2H211.3z M211.3,480.8v118.8c1.2,0.3,2.5,0.5,3.7,0.7c1.7,0.3,3.3,0.6,5,0.9
		c0.3,0,0.6,0.1,1,0.1c0.7,0.1,1.3,0.2,2,0.3c1.7,0.2,3.3,0.4,5,0.6c0.8,0.1,1.6,0.2,2.4,0.2l1.9,0.2l0,0c1.1,0.1,2.1,0.1,3.1,0.2
		c0.6,0,1.3,0.1,1.9,0.1c0.5,0,1,0,1.5,0s1.3,0,1.9,0c0.9,0,1.7,0,2.6,0h1.1c0.9,0,1.7,0,2.6-0.1h0.1c0.6,0,1.2,0,1.8-0.1
		c0.2,0,0.3,0,0.5,0c0.5,0,1,0,1.5-0.1h0.4l3.4-0.3c1.1-0.1,2.2-0.2,3.3-0.3l2.3-0.3c9.3-1.3,18.4-3.3,27.4-5.8
		c20.2-5.6,40-13.5,60.2-19.3c26.1-7.5,55-11.1,80.2-2v-93.7H211.3z M428.1,184.2V0c-23.7-0.3-47.4,2.5-70.4,8.3
		C302.8,22.1,253.5,52,211.3,90.2v94h10.9v4.3h-10.9v145.5h216.8V188.4H266.9v-4.3H428.1z M706.5,122c-13.6-0.5-27.1-4.8-39.3-11.4
		c-23.3-12.7-42-32.3-62.8-48.9c-43.3-34.5-97-55.3-152.1-60.4v182.9h309.5l0.8-0.8L706.5,122z M734.7,117l29.9,32.8v-41.4
		C754.6,109.6,745.8,112.6,734.7,117L734.7,117z M764.6,629.1V480.8h-63.7c-0.2-0.6-0.3-1.3-0.5-1.9c0.2,0.6,0.3,1.3,0.5,1.9H452.3
		V588c2.4,1.8,4.7,3.6,7,5.5l0,0c2.5,2,5,4.1,7.4,6.2l2.5,2.1c1.2,1,2.4,2,3.6,2.9c2.4,1.9,4.8,3.9,7.3,5.8c1.2,1,2.5,1.9,3.7,2.8
		c19.5,14.9,40.1,28.4,61.6,40.3c4.8,2.7,9.7,5.3,14.6,7.8c3.3,1.7,6.6,3.3,9.9,4.9c5,2.4,10,4.8,15,7l0,0
		c46.5,20.9,95.6,35.2,146,42.5c11.2,1.7,22.4,3,33.7,3.9L764.6,629.1l1,0L764.6,629.1z M452.3,188.4v145.5h312.3V188.4H452.3z
		 M452.3,338.2v138.3h312.3V338.2H452.3z M788.9,108.2v46.2l38.2-41.9C814.4,110.5,801.7,109,788.9,108.2L788.9,108.2z M788.9,338.2
		v138.3h303.7V338.2L788.9,338.2z M1091.5,640.1l1.1-159.3H788.9v240.6c19.6,0.8,39.2,0.6,58.7-0.7l0,0h0.3
		c9.3-0.6,18.6-1.4,27.9-2.6h0.2c49.3-5.7,97.6-18.6,143.2-38.2 M1151.2,361c-1.1-2.7-2.3-5.4-3.5-8c-2.3-5-4.7-9.9-7.1-14.7h-23.7
		v138.3h59.9C1176.7,437.4,1166.8,397.4,1151.2,361L1151.2,361z M1116.8,480.8v137c16.9-16.2,31.1-34.7,41.4-55.8
		c12.3-25.5,18-53.1,18.5-81.2L1116.8,480.8z M1116.8,297.9v36h21.5C1131.8,321.5,1124.7,309.5,1116.8,297.9L1116.8,297.9z
		 M910.8,135.3c-1.6-0.6-3.2-1.2-4.8-1.8c-16.8-6.2-33.9-11.3-51.3-15.4l-58.4,64.1l0,0l-1.1,1.2l0.8,0.8h207.8
		C974.9,164.3,943.7,147.9,910.8,135.3L910.8,135.3z M1009.9,188.5H793.1l-4.3,3.9v141.5h37.3h0.1l0,0h266.4v-68.5
		C1068.6,236.2,1040.8,210.4,1009.9,188.5L1009.9,188.5z"/>
	<path class="st0" d="M187.1,261.8v72.1H85.9c0-0.4,0.1-0.9,0.1-1.3c0.1-1.1,0.2-2.3,0.3-3.4c0.1-1.3,0.2-2.7,0.4-4s0.3-2.9,0.4-4.4
		s0.3-2.9,0.5-4.4s0.3-2.9,0.5-4.3s0.3-2.9,0.5-4.3c0.2-1.2,0.3-2.4,0.5-3.6c0.2-1.7,0.5-3.4,0.7-5.1c0-0.2,0.1-0.5,0.1-0.8
		c1.8-12.3,4.3-24.5,7.4-36.5L187.1,261.8z"/>
	<path class="st0" d="M85.6,338.2h101.5v138.3H93c-0.2,1.4-0.5,2.8-0.8,4.3h94.8v111.6c-0.2,0-0.3-0.1-0.5-0.2
		c-2.7-1.1-5.3-2.2-8-3.4l-1.7-0.8c-2.7-1.3-5.3-2.6-8-4c-0.9-0.5-1.9-1-2.8-1.5c-14.8-8.3-28.3-18.8-39.9-31.2
		c-0.3-0.3-0.7-0.7-1-1c-1.6-1.8-3.2-3.5-4.8-5.4l-1.7-2c-1.8-2.2-3.6-4.5-5.3-6.8c-0.2-0.3-0.5-0.7-0.8-1
		c-7-9.6-12.7-20.1-17.2-31.1c-0.1-0.3-0.3-0.7-0.4-1c-1.4-3.5-2.6-7.1-3.7-10.7c-0.5-1.5-0.9-3-1.3-4.6c-0.1-0.5-0.3-0.9-0.4-1.4
		c-5.7-22.2-6.3-45.2-6.3-68.1c0-2.7,0-5.4,0-8c0-9.2,0.1-18.6,0.3-27.9c0-2.4,0.1-4.8,0.1-7.2c0.1-6.1,0.3-12.3,0.6-18.4
		c0.1-1.7,0.1-3.4,0.2-5.1c0-1,0.1-2,0.2-2.9C85.2,345.2,85.4,341.7,85.6,338.2z"/>
	<polygon class="st0" points="287.6,209.3 287.6,333.9 211.3,333.9 211.3,209.3 222.2,209.3 222.2,167.1 266.9,167.1 266.9,209.3 	
		"/>
	<rect x="211.3" y="338.2" class="st0" width="76.3" height="138.3"/>
	<path class="st0" d="M211.3,480.8h76.3v115c-9,2.6-18.2,4.5-27.5,5.8l-2.3,0.3c-1.1,0.1-2.2,0.2-3.3,0.3s-2.2,0.2-3.4,0.3h-0.4
		c-0.5,0-1,0.1-1.5,0.1h-0.5c-0.6,0-1.2,0.1-1.8,0.1l0,0c-0.9,0-1.7,0.1-2.6,0.1c-0.4,0-0.7,0-1.1,0c-0.9,0-1.7,0-2.6,0H239
		c-0.5,0-1,0-1.5,0l-1.9-0.1c-1,0-2.1-0.1-3.1-0.2l0,0l-1.9-0.1l-2.4-0.2c-1.7-0.2-3.4-0.3-5-0.6l-2-0.3l-1-0.1
		c-1.7-0.3-3.3-0.5-5-0.9c-1.2-0.2-2.4-0.5-3.7-0.7L211.3,480.8z"/>
	<rect x="701.7" y="194.6" class="st0" width="62.9" height="139.4"/>
	<polygon class="st0" points="764.6,338.2 764.6,476.5 452.3,476.5 452.3,416.9 618.7,416.9 618.7,452.1 701.7,452.1 701.7,338.2 	
		"/>
	<path class="st0" d="M765.6,629.1h-1v90.8c-11.3-1-22.5-2.2-33.7-3.9c-50.4-7.4-99.6-21.7-146.1-42.6c-13.4-6-26.6-12.6-39.4-19.8
		c-21.5-11.9-42.1-25.4-61.6-40.3c-4.9-3.8-9.8-7.6-14.5-11.5c-3.3-2.7-6.6-5.5-9.9-8.2c-2.3-1.9-4.6-3.7-7-5.5V480.8h248.6
		c-0.2-0.6-0.3-1.3-0.5-1.9c0.2,0.6,0.4,1.3,0.5,1.9h63.7v148.3C765,629.1,765.3,629.1,765.6,629.1z"/>
	<path class="st0" d="M928.7,184.2h-41v-12.7h18.4v-38c1.6,0.6,3.2,1.2,4.8,1.8v36.2h17.9V184.2z"/>
	<path class="st0" d="M1027.5,333.9H826.2c0,0,0,0,0.1,0l-0.1,0h-37.3V194.6h10.6v103h48.3v-61h39.9v-48.1h41v48.1h39.9v61h58.8
		V333.9z"/>
	<path class="st0" d="M788.9,338.2v138.3h238.6V338.2H788.9z M1092.3,639.4l0.3-109.5h-65.1v-49H788.9v240.5
		c19.6,0.8,39.2,0.6,58.7-0.7l0,0h0.3c9.3-0.6,18.6-1.4,27.9-2.6h0.2c49.3-5.7,97.6-18.6,143.2-38.2"/>
	<rect x="730.9" y="233.3" class="st0" width="33.7" height="43.7"/>
	<rect x="730.9" y="323.9" class="st0" width="33.7" height="10.1"/>
	<rect x="730.9" y="338.2" class="st0" width="33.7" height="29.4"/>
	<rect x="730.9" y="414.4" class="st0" width="33.7" height="43.7"/>
	<rect x="730.9" y="505" class="st0" width="33.7" height="43.7"/>
	<path class="st0" d="M764.6,629.1c0.3,0,0.7,0,1,0.1L764.6,629.1v10.2h-33.7v-43.7h33.7V629.1z"/>
	<path class="st0" d="M764.6,686.1v33.8c-11.3-1-22.5-2.2-33.7-3.9v-29.9H764.6z"/>
	<rect x="452.3" y="473.3" class="st0" width="144.5" height="3.2"/>
	<rect x="452.3" y="480.8" class="st0" width="144.5" height="12.3"/>
	<rect x="452.3" y="533.4" class="st0" width="144.5" height="19.8"/>
	<path class="st0" d="M596.8,593.5v19.8h-113c-4.9-3.7-9.8-7.6-14.5-11.5c-3.3-2.7-6.6-5.5-9.9-8.2L596.8,593.5z"/>
	<path class="st0" d="M596.8,653.6v19.8h-11.9c-13.4-6-26.5-12.6-39.4-19.8L596.8,653.6z"/>
	<rect x="847.6" y="351.6" class="st0" width="28.4" height="28.4"/>
	<rect x="231.8" y="219.1" class="st0" width="28.4" height="28.4"/>
	<rect x="231.8" y="285.1" class="st0" width="28.4" height="28.4"/>
	<rect x="231.8" y="351.2" class="st0" width="28.4" height="28.4"/>
	<rect x="231.8" y="417.3" class="st0" width="28.4" height="28.4"/>
	<rect x="231.8" y="483.3" class="st0" width="28.4" height="28.4"/>
	<rect x="231.8" y="549.4" class="st0" width="28.4" height="28.4"/>
	<rect x="956.2" y="351.6" class="st0" width="28.4" height="28.4"/>
	<rect x="847.6" y="421.8" class="st0" width="28.4" height="28.4"/>
	<rect x="956.2" y="421.8" class="st0" width="28.4" height="28.4"/>
	<rect x="847.6" y="491.9" class="st0" width="28.4" height="28.4"/>
	<rect x="956.2" y="491.9" class="st0" width="28.4" height="28.4"/>
	<rect x="847.6" y="562" class="st0" width="28.4" height="28.4"/>
	<rect x="956.2" y="562" class="st0" width="28.4" height="28.4"/>
	<rect x="847.6" y="632.2" class="st0" width="28.4" height="28.4"/>
	<rect x="956.2" y="632.2" class="st0" width="28.4" height="28.4"/>
	<polygon class="st0" points="847.6,720.7 847.6,702.3 876,702.3 876,718.1 	"/>
	<path class="st0" d="M89.8,298.4v16.3h97.3v-16.3H89.8z M99.5,313.6h-7.9v-14.2h8L99.5,313.6z M109.1,313.6h-8v-14.2h8V313.6z
		 M118.8,313.6h-8v-14.2h8V313.6z M128.5,313.6h-8v-14.2h8L128.5,313.6z M138.2,313.6h-8v-14.2h8V313.6z M147.9,313.6h-8v-14.2h8
		V313.6z M157.6,313.6h-8v-14.2h8V313.6z M167.2,313.6h-8v-14.2h8V313.6z M176.9,313.6h-8v-14.2h8V313.6z M186.6,313.6h-8v-14.2h8
		V313.6z"/>
	<path class="st0" d="M89.8,345.7V362h97.3v-16.3H89.8z M99.5,360.9h-7.9v-14.2h8L99.5,360.9z M109.1,360.9h-8v-14.2h8V360.9z
		 M118.8,360.9h-8v-14.2h8V360.9z M128.5,360.9h-8v-14.2h8L128.5,360.9z M138.2,360.9h-8v-14.2h8V360.9z M147.9,360.9h-8v-14.2h8
		V360.9z M157.6,360.9h-8v-14.2h8V360.9z M167.2,360.9h-8v-14.2h8V360.9z M176.9,360.9h-8v-14.2h8V360.9z M186.6,360.9h-8v-14.2h8
		V360.9z"/>
	<path class="st0" d="M89.8,393.1v16.3h97.3v-16.3H89.8z M99.5,408.3h-7.9v-14.2h8L99.5,408.3z M109.1,408.3h-8v-14.2h8V408.3z
		 M118.8,408.3h-8v-14.2h8V408.3z M128.5,408.3h-8v-14.2h8L128.5,408.3z M138.2,408.3h-8v-14.2h8V408.3z M147.9,408.3h-8v-14.2h8
		V408.3z M157.6,408.3h-8v-14.2h8V408.3z M167.2,408.3h-8v-14.2h8V408.3z M176.9,408.3h-8v-14.2h8V408.3z M186.6,408.3h-8v-14.2h8
		V408.3z"/>
	<path class="st0" d="M89.8,440.4v16.2h97.3v-16.2H89.8z M99.5,455.7h-7.9v-14.2h8L99.5,455.7z M109.1,455.7h-8v-14.2h8V455.7z
		 M118.8,455.7h-8v-14.2h8V455.7z M128.5,455.7h-8v-14.2h8L128.5,455.7z M138.2,455.7h-8v-14.2h8V455.7z M147.9,455.7h-8v-14.2h8
		V455.7z M157.6,455.7h-8v-14.2h8V455.7z M167.2,455.7h-8v-14.2h8V455.7z M176.9,455.7h-8v-14.2h8V455.7z M186.6,455.7h-8v-14.2h8
		V455.7z"/>
	<path class="st0" d="M90.2,487.8c0.4,1.5,0.8,3.1,1.3,4.6v-3.5h8V503h-4.3c0.1,0.3,0.3,0.7,0.4,1h91.5v-16.2H90.2z M109.2,503h-8
		v-14.2h8V503z M118.8,503h-8v-14.2h8V503z M128.5,503h-8v-14.2h8L128.5,503z M138.2,503h-8v-14.2h8V503z M147.9,503h-8v-14.2h8V503
		z M157.6,503h-8v-14.2h8V503z M167.3,503h-8v-14.2h8V503z M177,503h-8v-14.2h8V503z M186.6,503h-8v-14.2h8V503z"/>
	<path class="st0" d="M112.8,535.1c0.2,0.3,0.5,0.7,0.8,1h5.3v6.8c0.6,0.7,1.1,1.4,1.7,2v-8.9h8v14.3h-3.2c0.3,0.3,0.6,0.7,1,1h60.8
		v-16.2H112.8z M138.2,550.4h-8v-14.2h8V550.4z M147.9,550.4h-8v-14.2h8V550.4z M157.6,550.4h-8v-14.2h8V550.4z M167.2,550.4h-8
		v-14.2h8V550.4z M176.9,550.4h-8v-14.2h8V550.4z M186.6,550.4h-8v-14.2h8V550.4z"/>
	<path class="st0" d="M166.2,582.5c0.9,0.5,1.8,1,2.8,1.5v-0.5h8v4.5l1.7,0.8v-5.3h8v8.7c0.2,0.1,0.3,0.1,0.5,0.2v-9.8L166.2,582.5z
		"/>
	<path class="st0" d="M826.2,333.9L826.2,333.9L826.2,333.9L826.2,333.9z M764.6,629.1L764.6,629.1h1H764.6z M700.4,478.9
		c0.2,0.6,0.3,1.3,0.5,1.9l0,0C700.7,480.2,700.6,479.5,700.4,478.9z M826.2,333.9L826.2,333.9L826.2,333.9L826.2,333.9z
		 M222.2,184.2v4.3h44.7v-4.3H222.2z M764.6,629.1L764.6,629.1h1H764.6z M700.4,478.9c0.2,0.6,0.3,1.3,0.5,1.9l0,0
		C700.7,480.2,700.6,479.5,700.4,478.9z M826.2,333.9L826.2,333.9L826.2,333.9L826.2,333.9z M764.6,629L764.6,629h1H764.6z
		 M700.4,478.9c0.2,0.6,0.3,1.3,0.5,1.9l0,0C700.7,480.2,700.6,479.5,700.4,478.9z"/>
	
		<linearGradient id="SVGID_1_" gradientUnits="userSpaceOnUse" x1="475.3357" y1="-49.4791" x2="475.3357" y2="565.8411" gradientTransform="matrix(1 0 0 -1 -47.24 725.37)">
		<stop  offset="0" style="stop-color:#808080;stop-opacity:0.25"/>
		<stop  offset="0.54" style="stop-color:#808080;stop-opacity:0.12"/>
		<stop  offset="1" style="stop-color:#808080;stop-opacity:0.1"/>
	</linearGradient>
	<path class="st1" d="M533.4,379.7c0,0-3.9-0.5-3.9-6.3s-2.8-16.5-2.8-16.5l0,0c0,0-2.4-18.7-5.8-21.6s-7.7-20.3-7.7-20.3
		s-0.7-9.4-2.2-11.5s-3.5-7-6.6-14.1s-15.6-12-15.6-12s-22.7-13.2-29.1-17.5l0,0c-0.6-0.4-1.1-0.8-1.6-1.2c-1.1-1.5-6-1.5-6-1.5
		c-0.5-3.2-1-6.9-1.2-10.3c0-0.4,0-0.7,0-1.1c7.2-4.2,12.6-10.9,15.2-18.8c0.1-0.4,0.2-0.8,0.3-1.2c0.9-0.3,1.6-0.9,2-1.8
		c0.6-1.3,0.6-2.8,1.3-4c0.8-1.4,2.4-2.2,3.7-3.2c3.2-2.7,4-7.2,3.8-11.4c-0.1-3.4-0.6-6.7-0.4-10.1l0.1-0.8c0.1-0.5,0.1-1,0.2-1.5
		c0.5-2.5,1.6-4.8,2.2-7.3c0.6-2.5,0.7-5.2-0.7-7.4c-2-3.1-6.3-3.7-10.1-4.1c-4.2-0.4-8,0.1-10.8-3.4c-1.3-1.8-2.7-3.6-4.3-5.2
		c-0.6-0.5-6-3.8-6-4.1c-5.3-2.5-11.3-2.9-17-1.3c-2.8,0.8-5.5,2.2-8.3,2.8c-6.2,1.5-13.3-0.1-18.5,3.4c-2.9,2-4.7,5.2-6.3,8.3
		c-1.3,2.6-2.7,5.1-4.1,7.6c-2.2,4.2-4.5,8.4-5.4,13.1c-0.2,1-0.3,2-0.4,3.1l0,0v0c0,0.4,0,0.7,0,1.1v0.5c0,0.4,0,0.7,0.1,1
		s0,0.4,0.1,0.6c0,0.2,0.1,0.7,0.1,1c0.1,0.3,0.2,0.9,0.3,1.3c0,0.2,0.1,0.4,0.2,0.5c0.1,0.3,0.2,0.7,0.4,1c0.1,0.2,0.1,0.4,0.2,0.5
		c0.2,0.4,0.3,0.7,0.5,1c0.1,0.1,0.1,0.3,0.2,0.4c0.3,0.5,0.6,0.9,0.9,1.3c2.1,2.7,5.3,4.4,7.6,6.9c0,0.1,0,0.2,0,0.3
		c0,0.3,0,0.5,0,0.8c0.3,11.3,6.1,21.8,15.6,28c0,0.4,0,0.8,0.1,1.1c0.2,3,0.2,5.9-0.1,8.9c-0.8-1-2-1.5-3.3-1.5
		c-0.4,0-0.9,0-1.3,0.1l-0.1-0.1l0,0v0.1c-2.2,0.5-4.9,2.8-7.5,9.3c0,0-7.9,8.9-13.9,8.5s-21.2,9.2-21.2,9.2s-14.8,9.6-18,19.4
		c-1.8,5.6-3.9,11-6.4,16.3l-18.3,37.8l0,0l-3.4,30c0,0,1.9,13.3,1.5,15.4s7.7,20.3,7.7,20.3s26.6,46.8,37.5,49.2l0.8-0.5
		c0.5,0.2,1,0.4,1.5,0.5l2.2-1.6c0.1,1.8,0.1,3.5-0.2,5.3c-1.5,4.6,0.6,34.8,3.2,40.7S376,597,376,597l-0.4,6.8c0,0,0,0.2,0.1,0.6
		l-0.1,1.6l0.3,0.1c0.3,2.2,0.2,4.4-0.3,6.5c-0.9,3-1.3,11.5-1.3,11.5s-7.5,47.9-3.9,57.5s6.6,20.2,6.6,20.2s3.8,12,0.2,14
		s-13.7,5.5-11.6,10.5c1.9,4.6,9.1,17,10.2,18.8l-0.1,1l-1.5,15.9c0.2,2.1,0.8,4.2,1.7,6.1c1.6,3.5,4.7,7.1,10.7,6.7
		c1-0.1,2.2-0.2,3.3-0.3c10.9-1.5,24.3-6.3,24.3-6.3c-0.7-0.4-1.3-1-1.9-1.6l0,0c-1.1-1-1.7-2.5-1.7-4c0.2-2.9-5.3-16.7-6.6-20.1
		c-0.2-0.5-0.3-0.8-0.3-0.8s12.4-12.9,10.3-24.4c0,0-13.7-8-9.2-12.4s12.6-17,12.6-17s0.4-47.2,0-54.2c-0.4-4.9-0.2-9.8,0.7-14.6
		c0.2-0.7,0.3-1.4,0.5-2.1c6.2,0.9,12.5,1.4,18.8,1.4c2.3,0,4.6,0,7-0.1c0,0.7,0,1.4,0.1,2.2c0.5,11.7,1.5,32.2,2.3,39.8
		c1.1,10.9,7.3,40.3,7.3,40.3s-11.8,7.6,2.1,26.3c0,0,0,6.8-0.9,7.8l0,0c-1,3.2-1.8,6.5-2.4,9.8c-0.6,3.5-0.8,7.1,0.1,8.9
		c2.2,4.4,15.8,4.1,15.8,4.1l0,0l0.3-0.1c5.1-0.5,10.3,1,14.3,4.3c5.1,4.1,24.6,2.3,35.1,1c4.1-0.5,6.9-1,6.9-1
		c0.1-0.5,0.2-1,0.1-1.4l0,0c-0.1-2.6-2.1-8.3-15.9-13.3c0,0-12.9-8.7-12.8-16.3h-0.3H495c1.1-0.1,1.8,0,1.8,0s-5.1-18.5-3-20
		s-4.1-22-4.1-22s-3.5-34.4-3.7-36.8c0-2.1,0.3-4.1,0.9-6.1l-0.9-18.9c0,0-0.2-6.3,0-8.3c0-1.8-0.2-3.5-0.4-5.3
		c-0.1-0.7-0.2-1.4-0.3-2.2c4.8-1.2,8-2.4,8-2.4l-0.6-65.7c4.1-8,4.9-25.5,4.9-38c0-8-0.4-13.9-0.4-13.9l5.6-9.2
		c0,0,1.3-11-0.8-13.4c-0.9-1.1-0.5-2.2,0.2-3.2c0.4-0.3,0.8-0.6,1.2-0.8c0,0-0.1-0.1-0.1-0.2c0.4-0.3,0.8-0.6,1.2-0.9
		c0,0-2-3.1-0.2-4.4c1.7,1.1,3.2,2,4.3,2.7c-0.1,0.7-0.2,1.2-0.2,1.2l0.5-1c1.1,0.6,1.8,1,1.8,1s8.8-17.6,8.6-20.2s6-13.5,6-13.5
		s0.8-5.7,4.1-8.1s2.6-19.8,2.6-19.8s0.9-9.1,3.2-12.8S533.4,379.7,533.4,379.7z M364.6,372l0.2,4.2c-1-1.6-1.7-2.8-1.7-2.8
		L364.6,372z"/>
	<path class="st2" d="M511.3,455.1l-2.2,9.2c0,0-17.3-8.8-20.4-20c-3.1-11.2,5.2-15.5,5.2-15.5l16.1,6.8L511.3,455.1z"/>
	<path class="st3" d="M511.3,455.1l-2.2,9.2c0,0-17.3-8.8-20.4-20c-3.1-11.2,5.2-15.5,5.2-15.5l16.1,6.8L511.3,455.1z"/>
	<path class="st2" d="M414.2,768.2c0,0-16,5.9-27,6.6c-5.8,0.4-8.9-3.2-10.5-6.6c-0.9-1.9-1.4-4-1.6-6l1.4-15.8l0.8-8.4l23.4-6.1
		l3.3,10.1l0.3,0.8c1.3,3.4,6.7,17.1,6.5,20c0,1.5,0.6,2.9,1.6,4C412.9,767.2,413.6,767.8,414.2,768.2z"/>
	<path class="st2" d="M523.5,760.2c0,0.5,0,1-0.1,1.4c0,0-34.2,5.7-41.2,0c-4-3.4-9.2-4.9-14.4-4.2c0,0-13.2,0.4-15.5-4
		c-0.9-1.8-0.7-5.4-0.1-8.9c0.6-3.3,1.4-6.5,2.3-9.7l0.5-0.4l3.2-2.5l36.9-1.1h0.3c-0.2,7.5,12.5,16.2,12.5,16.2
		C521.4,751.9,523.4,757.6,523.5,760.2z"/>
	<path class="st3" d="M523.5,760.2c0,0.5,0,1-0.2,1.4c0,0-34.2,5.7-41.2,0c-4-3.4-9.2-4.9-14.4-4.2c0,0-13.2,0.4-15.5-4
		c-0.9-1.8-0.7-5.4-0.1-8.9c5.1,0.5,13.1,1.8,16.3,4.8c4.8,4.6,12.9,9.2,17.8,9.6C490.2,759.1,513.5,759.9,523.5,760.2z"/>
	<path class="st3" d="M414.2,768.2c0,0-16,5.9-27,6.6c-5.8,0.4-8.9-3.2-10.5-6.7c4.1,1.4,9.7,2.8,12.7,1.5c3.5-1.6,16-2.6,23-3
		C413,767.3,413.6,767.8,414.2,768.2z"/>
	<path class="st4" d="M438,294.4c-13.2-5.1-30.2-22.1-25.9-30c0.9-2,1.5-4.2,1.6-6.4c0.3-3,0.3-6,0.1-9c-0.3-4.9-0.9-9.8-1.8-14.6
		c0,0,41.2,0.9,38.8,7c-0.7,1.8-0.8,4.9-0.6,8.3s0.7,7.4,1.2,10.7c0.7,4.5,1.4,8,1.4,8s-2.5,3.5-4,3.7
		C447.4,272.3,456.9,301.7,438,294.4z"/>
	<path class="st3" d="M404.2,742.7l-0.3,0.3c-12.3-14.9-27.2,3.7-27.2,3.7l-0.2-0.4l0.8-8.4l23.4-6.1l3.3,10.1L404.2,742.7z"/>
	<path class="st3" d="M495.4,731.8c0,0-9-0.2-13.8,4s-28,0.9-27,0c0.3-0.5,0.5-1,0.5-1.5l3.1-2.5l36.9-1.1
		C495.3,731.4,495.4,731.8,495.4,731.8z"/>
	<path class="st5" d="M419.6,614.8c-0.7,1.7-1.2,3.4-1.5,5.1c-0.8,4.8-1.1,9.7-0.7,14.6c0.4,7,0,53.9,0,53.9s-7.9,12.5-12.3,16.9
		c-4.4,4.4,9,12.3,9,12.3c2,11.4-10.1,24.3-10.1,24.3c-12.3-14.9-27.2,3.7-27.2,3.7s-8.1-14-10.1-19c-2-5,7.9-8.5,11.4-10.5
		s-0.2-14-0.2-14s-3-10.5-6.5-20.1s3.9-57.2,3.9-57.2s0.4-8.5,1.3-11.4c0.5-2.1,0.6-4.3,0.3-6.5c-0.1-0.7-0.1-1.3-0.2-1.8
		s-0.1-0.6-0.1-0.6l0.1-0.2l5-9.3C381.6,595,422,608.9,419.6,614.8z"/>
	<path class="st5" d="M495.4,730.7c0,0-9-0.2-13.8,4s-28,0.9-27,0s0.9-7.7,0.9-7.7c-13.6-18.6-2-26.1-2-26.1s-6.1-29.2-7.2-40.1
		c-0.8-7.6-1.7-28-2.2-39.6c-0.2-5-0.3-8.4-0.3-8.4l11.1-2.2l1.4-0.3l26.8-5.4c0,0,0.7,5,1.2,9.1c0.2,1.7,0.4,3.5,0.4,5.3
		c-0.2,2,0,8.3,0,8.3l0.9,18.8c-0.6,2-0.9,4-0.9,6.1c0.2,2.4,3.7,36.6,3.7,36.6s6.1,20.4,4,21.9S495.4,730.7,495.4,730.7z"/>
	<path class="st3" d="M450.8,241.4c-0.7,1.8-0.8,4.9-0.6,8.3c-11.3,6.8-25.4,6.5-36.4-0.7c-0.3-4.9-0.9-9.8-1.8-14.6
		C412,234.4,453.2,235.3,450.8,241.4z"/>
	<path class="st4" d="M466.8,219.3c0,3.6-0.6,7.2-1.7,10.6c-5.9,18-25.2,27.8-43.2,21.9c-13.8-4.5-23.2-17.2-23.6-31.7
		c0-0.3,0-0.5,0-0.8c-0.3-18.9,14.7-34.5,33.6-34.8c18.9-0.3,34.5,14.7,34.8,33.6C466.8,218.5,466.8,218.9,466.8,219.3L466.8,219.3z
		"/>
	<path class="st3" d="M438,294.4c-13.2-5.1-30.2-22.1-25.9-30c0.9-2,1.5-4.2,1.6-6.4l18.1,14.9l11.2,9.2l8.5-21.6
		c0.7,4.5,1.4,8,1.4,8s-2.5,3.5-4,3.7C447.4,272.3,456.9,301.7,438,294.4z"/>
	<polygon class="st5" points="484.7,360 469.6,613.5 449.9,614.8 399,467.8 407.3,293.3 409.1,256.4 431.7,275 442.9,284.2 
		451.7,261.9 468,276.1 	"/>
	<path class="st3" d="M419.6,614.8c-0.7,1.7-1.2,3.4-1.5,5.1c-14.3-2.2-28.2-6.6-41.3-12.9l-0.3-0.1l0.1-1.6l0-0.8l5-9.3
		C381.7,595.1,422,608.9,419.6,614.8z"/>
	<path class="st3" d="M455.1,620c-3.7,0.6-7.4,1-11.1,1.3c-0.2-5-0.4-8.4-0.4-8.4l11.1-2.2L455.1,620z"/>
	<path class="st3" d="M484.3,614c-7.1,1.8-18.1,3.9-27.9,2.6l-0.1-6.3l26.8-5.4C483,604.9,483.8,609.8,484.3,614z"/>
	<path class="st3" d="M456.2,617.7c-41,7-78.5-13.1-78.5-13.1l0.4-6.8c0,0,0.9-77.1-1.7-83c-2.6-5.9-4.6-35.9-3.1-40.5
		c1.5-4.6-5.3-73.6-5.3-73.6l-1.1-28l-40.3-16.3l18-37.5c2.4-5.3,4.5-10.7,6.3-16.2c3.1-9.7,17.7-19.3,17.7-19.3s14.9-9.6,20.8-9.2
		s13.6-8.5,13.6-8.5c5.7-14.5,10.9-8,10.9-8c0,0.7,0,0-0.3,2.1c-2,16,32.3,66.4,32.8,67.2l0,0l3.3,79.7l3.3,100.8L456.2,617.7z"/>
	<path class="st2" d="M455.1,617.7c-41,7-78.6-13.1-78.6-13.1l0.4-6.8c0,0,0.9-77.1-1.7-83c-2.6-5.9-4.6-35.9-3.1-40.5
		c1.5-4.6-5.3-73.6-5.3-73.6l-1.1-28l-40.3-16.4l18-37.5c2.4-5.3,4.5-10.7,6.3-16.2c3.1-9.7,17.7-19.3,17.7-19.3s14.9-9.6,20.8-9.2
		s13.6-8.5,13.6-8.5c5.7-14.5,12-8,12-8c0,0.7-0.6,1-0.3,2.1c4.4,15.5,31.2,66.4,31.7,67.2l0,0l3.3,79.7l3.3,100.8L455.1,617.7z"/>
	<path class="st3" d="M444,329.5c-4.4-1.8-27.8-28.5-27.8-28.5v-6.1c-0.8-2-5.9-0.8-10,0.6l1.8-36.9l2,1.7
		C414.4,275.8,443.5,328.6,444,329.5z"/>
	<path class="st2" d="M445.1,327.2c-4.4-1.8-27.8-28.5-27.8-28.5v-6.1c-0.8-2-5.9-0.8-10,0.6l1.8-36.9l2,1.7
		C415.5,273.5,444.6,326.4,445.1,327.2z"/>
	<path class="st3" d="M377.6,460.3c0.5,0,28.5-2.9,28.5-2.9s16.9,33.3,15.8,41.4s-3.1,15.3-9.9,14s-36.7,1-36.7,1L377.6,460.3z"/>
	<path class="st2" d="M376.5,458c0.5,0,28.5-2.9,28.5-2.9s16.9,33.3,15.8,41.4c-1.1,8.1-3.1,15.3-9.9,14s-36.7,1-36.7,1L376.5,458z"
		/>
	<path class="st4" d="M397.6,442.4c0,0,25.7,13.8,26.2,18s-13.1-1.8-16-2.6c-1.9-0.5-3.9-0.8-5.9-0.9l-19.6,0.5L397.6,442.4z"/>
	<circle class="st3" cx="436.9" cy="328.5" r="2.7"/>
	<circle class="st6" cx="436.9" cy="327.4" r="2.7"/>
	<circle class="st3" cx="441.8" cy="445.4" r="2.7"/>
	<circle class="st6" cx="441.8" cy="444.2" r="2.7"/>
	<circle class="st3" cx="439.6" cy="386.9" r="2.7"/>
	<circle class="st6" cx="439.6" cy="385.8" r="2.7"/>
	<path class="st2" d="M501.8,456.4c0,0,1.8,2.8,0,4c-1.8,1.3,0.2,4.4,0.2,4.4s-4.6,2.7-2.6,5.1c2,2.4,0.7,13.3,0.7,13.3l-5.5,9.1
		c0,0,0.3,5.9,0.3,13.8c0,12.4-0.7,29.9-4.8,37.8l0.6,65.3c0,0-19.3,7.1-35.5,4.9l-2.4-104.8c0,0,3.5-59.4,4.8-70.8
		c0.8-5.9,1.1-11.9,0.9-17.9c0,0-0.5-17.8-2.4-26.1c0,0-2-35.9-2.2-45.8c-0.1-4.8,0.2-18.6,0.4-31.8c0.3-14.4,0.7-28,0.7-28
		l-3.6-28.9c0,0,3.6-0.4,4.8,1.1c0.5,0.5,1,0.9,1.6,1.2l0,0c6.3,4.3,28.6,17.4,28.6,17.4s12.3,4.9,15.3,11.9c2.9,7,5,12,6.4,14
		s2.2,11.4,2.2,11.4s4.2,17.3,7.5,20.2s5.7,21.6,5.7,21.6l-29.2,23c0,0-2.6,38.3-3.1,39.7S501.8,456.4,501.8,456.4z"/>
	<path class="st2" d="M502.9,456.4c0,0,1.8,2.8,0,4c-1.8,1.3,0.2,4.4,0.2,4.4s-4.6,2.7-2.6,5.1s0.7,13.3,0.7,13.3l-5.5,9.1
		c0,0,0.3,5.9,0.4,13.8c0,12.4-0.7,29.9-4.8,37.8l0.5,65.3c0,0-19.4,7.1-35.5,4.9L454,509.6c0,0,3.5-59.4,4.8-70.8
		c0.8-5.9,1.1-11.9,0.9-17.9c0,0-0.5-17.8-2.4-26.1c0,0-2-35.9-2.2-45.8c-0.1-4.8,0.2-18.6,0.4-31.8c0.3-14.4,0.7-28,0.7-28
		l-4.8-29.3c0,0,4.8,0,5.9,1.5c0.5,0.5,1,0.9,1.6,1.2l0,0c6.3,4.3,28.6,17.4,28.6,17.4s12.3,4.9,15.3,11.9s5,12,6.4,14
		s2.2,11.4,2.2,11.4s4.2,17.3,7.5,20.2s5.7,21.5,5.7,21.5l-29.2,23c0,0-2.6,38.3-3.1,39.7S502.9,456.4,502.9,456.4z"/>
	<path class="st3" d="M467.9,297.7l2.6,7.7l-13.9,14c0.3-14.4,0.7-28,0.7-28l-4.8-29.3c0,0,4.8,0,5.9,1.5c0.5,0.5,1,0.9,1.6,1.2l0,0
		l11.8,34.1L467.9,297.7z"/>
	<path class="st2" d="M466.8,295.5l2.6,7.7l-13.9,14c0.3-14.4,0.7-28,0.7-28l-4.8-29.3c0,0,4.8,0,5.9,1.5c0.5,0.5,1,0.9,1.6,1.2l0,0
		l11.8,34.1L466.8,295.5z"/>
	<path class="st3" d="M466.8,219.3c0,3.6-0.6,7.2-1.7,10.6c-0.4,0.1-0.8,0-1.1-0.3c-0.3-9-4.7-17.5-10.1-24.6
		c-1.5-2.2-3.4-4.1-5.5-5.7c-2.1-1.6-4.8-2.4-7.5-2.1c-3,0.4-5.7,2.4-8.7,2.7c-4,0.3-7.6-2.4-11.5-2.6c-3.3,0-6.4,1.5-8.5,3.9
		c-2.1,2.5-3.6,5.3-4.5,8.4c-1.6,4.7-2.4,9.6-2.5,14.6c0,2.8-0.3,6.3-2.9,7.3c0.4-4.2-1-8.3-3.8-11.4l-0.1-0.1c0-0.3,0-0.5,0-0.8
		c-0.3-18.9,14.7-34.5,33.6-34.8s34.5,14.7,34.8,33.6C466.8,218.5,466.8,218.9,466.8,219.3L466.8,219.3z"/>
	<path class="st7" d="M446.7,164.9c-5.2-2.4-11.1-2.9-16.6-1.3c-2.8,0.8-5.4,2.1-8.2,2.8c-6,1.4-13-0.1-18.1,3.4
		c-2.9,2-4.6,5.2-6.2,8.2l-4,7.6c-2.2,4.2-4.4,8.4-5.3,13c-0.9,4.6-0.4,9.7,2.5,13.4c2.1,2.7,5.2,4.4,7.5,6.9
		c2.8,3.1,4.1,7.2,3.8,11.4c2.6-1,2.9-4.5,2.9-7.3c0.1-5,1-9.9,2.5-14.6c0.9-3.1,2.5-6,4.5-8.4c2.1-2.5,5.2-3.9,8.5-3.9
		c4,0.1,7.6,2.9,11.5,2.6c3-0.2,5.7-2.3,8.7-2.7c2.7-0.3,5.3,0.5,7.5,2.1c2.1,1.6,4,3.5,5.5,5.7c5.5,7.2,9.9,15.6,10.1,24.6
		c1.1,0.8,2.8-0.2,3.3-1.5s0.6-2.8,1.3-4c0.8-1.4,2.4-2.2,3.6-3.2c3.1-2.7,3.9-7.2,3.8-11.3s-0.9-8.3-0.1-12.3
		c0.5-2.5,1.5-4.8,2.1-7.2c0.6-2.4,0.7-5.2-0.7-7.3c-2-3.1-6.2-3.7-9.9-4c-4.2-0.4-7.9,0.1-10.6-3.4c-1.2-1.8-2.7-3.6-4.2-5.1
		C452.1,168.5,446.7,165.2,446.7,164.9z"/>
	<path class="st3" d="M338,375.8l-10.5-19.3l-3.3,29.8c0,0,1.8,13.2,1.5,15.3s7.5,20.2,7.5,20.2s26.1,46.5,36.8,48.9l36-25.8
		l-9.6-12.1c0,0-3.3-1.3-4.1,0c0,0-17.8-30.5-19.6-32.8c-1.8-2.2-1.5-6.6-1.5-6.6s-2.8-2.9-1.8-5.7c0.9-2.8-5.3-12.3-5.3-12.3
		l5.7-5.3L338,375.8z"/>
	<path class="st2" d="M328.1,354.3l-2.8,2.2l-3.3,29.8c0,0,1.8,13.2,1.5,15.3s7.5,20.2,7.5,20.2s26.1,46.5,36.8,48.9l36.1-25.8
		l-9.6-12.1c0,0-3.3-1.3-4.1,0c0,0-17.8-30.5-19.6-32.8c-1.8-2.2-1.5-6.6-1.5-6.6s-2.8-2.9-1.8-5.7c0.9-2.8-5.3-12.3-5.3-12.3
		l5.7-5.3L328.1,354.3z"/>
	<path class="st3" d="M499.4,471.1c2,2.4,0.7,13.3,0.7,13.3l-5.5,9.1c0,0,0.3,5.9,0.4,13.8l-9.3,2.9c-2.9,0.9-6-0.7-6.9-3.6
		c-0.2-0.6-0.3-1.2-0.2-1.8l1.6-51.6l21.7,8.3c-1.8,1.3,0.2,4.4,0.2,4.4S497.4,468.7,499.4,471.1z"/>
	<path class="st2" d="M500.5,470c2,2.4,0.7,13.3,0.7,13.3l-5.5,9.1c0,0,0.3,5.9,0.4,13.8l-9.5,3c-2.8,0.9-5.9-0.7-6.8-3.6
		c-0.2-0.6-0.3-1.2-0.2-1.8l1.6-51.8l21.7,8.3c-1.9,1.3,0.2,4.4,0.2,4.4S498.5,467.5,500.5,470z"/>
	<path class="st4" d="M507.7,445.4c0,0-1.5,9.4-5.1,9.9s-5.3,15.2-9,14.7c-3.7-0.5-1.2-13.6-1.1-16.2s-4-13.1-0.9-15.5
		c3.1-2.4,12.9,0,12.9,0L507.7,445.4z"/>
	<path class="st3" d="M515.5,373.1l6.9-14c0,0,2.8,10.7,2.8,16.4s3.9,6.3,3.9,6.3s4.2,5,2,8.6c-2.2,3.6-3.1,12.7-3.1,12.7
		s0.7,17.3-2.6,19.7s-4,8.1-4,8.1s-6.1,10.9-5.9,13.4c0.2,2.6-8.5,20.1-8.5,20.1s4.2-21.7-20.4-31.1c0,0-0.2-7.4,1.7-9.4
		c1.8-2,4.7-2.9,2.9-13.1s-0.5-22.4-0.5-24.9s5.5-17.7,5.5-17.7L515.5,373.1z"/>
	<path class="st2" d="M518.5,357.1l6.1,2c0,0,2.8,10.7,2.8,16.4s3.9,6.3,3.9,6.3s4.2,5,2,8.6c-2.2,3.6-3.1,12.7-3.1,12.7
		s0.7,17.3-2.6,19.7s-4,8.1-4,8.1s-6.1,10.9-5.9,13.4s-8.5,20.1-8.5,20.1s4.2-21.7-20.4-31.1c0,0-0.2-7.4,1.7-9.4
		c1.8-2,4.7-2.9,2.9-13.1s-0.5-22.4-0.5-24.9s5.5-17.7,5.5-17.7L518.5,357.1z"/>
	<path class="st3" d="M384.7,719.9c0,0,9.7-6.1,16-1.7C407,722.7,384.7,719.9,384.7,719.9z"/>
	<path class="st3" d="M459.7,701.2c0,0,8.5-1.1,15.7,6.6C482.6,715.5,459.7,701.2,459.7,701.2z"/>
	<g class="st8">
		<path d="M472.2,217.5c-1.2,1.1-2.8,1.8-3.6,3.2c-0.7,1.2-0.7,2.7-1.3,4s-2.2,2.4-3.3,1.5c-0.3-9-4.7-17.5-10.2-24.6
			c-1.5-2.2-3.4-4.1-5.5-5.7c-2.1-1.6-4.8-2.4-7.5-2.1c-3,0.4-5.6,2.4-8.7,2.7c-4,0.3-7.6-2.4-11.6-2.6c-3.3,0-6.4,1.5-8.5,3.9
			c-2.1,2.5-3.6,5.3-4.5,8.4c-1.6,4.7-2.4,9.6-2.5,14.6c-0.1,2.8-0.3,6.3-2.9,7.3c0.1,0.7,0.1,1.5,0,2.2c2.6-1,2.9-4.5,2.9-7.3
			c0.1-5,1-9.9,2.5-14.6c0.9-3.1,2.5-6,4.5-8.4c2.1-2.5,5.2-3.9,8.5-3.9c4,0.1,7.6,2.9,11.6,2.6c3-0.2,5.7-2.3,8.7-2.7
			c2.7-0.3,5.3,0.5,7.5,2.1c2.1,1.6,4,3.5,5.5,5.7c5.5,7.2,9.9,15.6,10.2,24.6c1.1,0.8,2.8-0.2,3.3-1.5s0.6-2.8,1.3-4
			c0.8-1.4,2.4-2.2,3.6-3.2c3.1-2.7,3.9-7.2,3.8-11.3c0-0.1,0-0.3,0-0.4C475.8,211.6,474.9,215.2,472.2,217.5z"/>
		<path d="M398.4,216.8c-2.3-2.5-5.4-4.2-7.5-6.9c-1.8-2.4-2.8-5.2-2.9-8.2c-0.3,3.7,0.7,7.4,2.9,10.4c2.1,2.7,5.2,4.4,7.5,6.9
			c2.2,2.5,3.5,5.6,3.8,8.9C402.5,223.9,401.1,219.9,398.4,216.8z"/>
		<path d="M478,186.6c-0.6,2.4-1.6,4.8-2.1,7.2c-0.3,1.7-0.4,3.3-0.3,5c0-1,0.1-1.9,0.3-2.8c0.5-2.5,1.5-4.8,2.1-7.2
			c0.3-1.4,0.5-2.8,0.3-4.1C478.3,185.3,478.1,186,478,186.6z"/>
	</g>
	<ellipse class="st0" cx="204.5" cy="744.9" rx="97.4" ry="15.7"/>
	<rect x="201.4" y="445.1" class="st9" width="6.3" height="141.2"/>
	<path class="st6" d="M247,585.9l-0.4,6.4l-0.6,9l-0.2,3.7l-0.6,9l-0.2,3.7l-0.6,9l-6.3,102.1c-0.6,9.1-8.1,16.2-17.3,16.2h-32.9
		c-9.1,0-16.7-7.1-17.2-16.2l-6.3-102.1l-0.6-9l-0.2-3.7l-0.6-9l-0.2-3.7l-0.6-9l-0.4-6.4c-0.3-5,3.5-9.2,8.5-9.5c0.2,0,0.3,0,0.5,0
		h67.2c4.9,0,8.9,4.1,8.9,9C247,585.5,247,585.7,247,585.9z"/>
	<polygon class="st10" points="246.6,592.2 246.1,601.2 162.9,601.2 162.3,592.2 	"/>
	<polygon class="st10" points="245.8,605 245.3,613.9 163.7,613.9 163.1,605 	"/>
	<polygon class="st10" points="245.1,617.7 244.5,626.7 164.5,626.7 163.9,617.7 	"/>
	<path class="st5" d="M152.8,498c36.5,26.4,51.8,67.7,51.8,67.7s-44-1.5-80.5-27.9s-51.7-67.7-51.7-67.7S116.2,471.6,152.8,498z"/>
	<path class="st11" d="M72.2,470.1c0,0,45.7,25.3,60.3,46.3s71.9,49.3,71.9,49.3"/>
	<path class="st5" d="M176.3,444.8c19.9,14.4,28.2,36.9,28.2,36.9s-23.9-0.8-43.8-15.2s-28.2-36.9-28.2-36.9
		S156.5,430.4,176.3,444.8z"/>
	<path class="st11" d="M132.5,429.6c0,0,24.9,13.8,32.8,25.2s39.2,26.8,39.2,26.8"/>
	<path class="st5" d="M233.4,480.5c-22.8,25.1-27.7,57.9-27.7,57.9s32.2-7.9,55-33s27.7-57.9,27.7-57.9S256.2,455.5,233.4,480.5z"/>
	<path class="st11" d="M288.4,447.6c0,0-29.7,25.7-37.3,43.4s-45.4,47.4-45.4,47.4"/>
	
		<linearGradient id="SVGID_00000173133909586862100810000010099205823790752662_" gradientUnits="userSpaceOnUse" x1="1012.46" y1="-41.719" x2="1012.46" y2="520.3082" gradientTransform="matrix(1 0 0 -1 -47.24 725.37)">
		<stop  offset="0" style="stop-color:#808080;stop-opacity:0.25"/>
		<stop  offset="0.54" style="stop-color:#808080;stop-opacity:0.12"/>
		<stop  offset="1" style="stop-color:#808080;stop-opacity:0.1"/>
	</linearGradient>
	<path style="fill:url(#SVGID_00000173133909586862100810000010099205823790752662_);" d="M1071.4,471.7c0,0-16.5-82.1-10.2-92.4
		c0,0,0.2-9.5-0.2-21.6c0-0.5,0-0.9,0-1.4c1.1,0.7,2.3,1.4,3.5,2c5.8,3,12.5,3.9,18.9,2.4l-5-5.6c-1.2-1.3-2.4-2.8-2.7-4.5
		s0.5-3.3,1.1-4.9c4.8-12,5-27.1-4.2-36.2c-7.7-7.7-9.6-17.6-18-24.7c-6.1-5.1-9.5-12.7-12.7-20c-2.7-6.2-5.4-12.4-6.9-18.9
		c-1.2-5.1-1.7-10.4-3.3-15.4s-4.7-9.8-9.6-12.1c-1.7-0.8-3.6-1.2-5.2-2.3c-2.1-1.4-3.3-3.6-4.8-5.6c-7.6-10-32.9-4.1-44.9,0
		c-3.3,1-6.3,2.7-8.9,4.9l0.1-0.2c0.1-0.1,0.2-0.3,0.3-0.5c-1.3,1.1-2.4,2.3-3.4,3.8c-1.8,2.8-2.5,6-3.9,9
		c-1.8,3.5-11.5,13.5-7.3,17.5c0.3,0.3,0.6,0.5,1,0.6c1.6,0.7,3.3,0.8,5,0.5l-0.2,0.4c-1.4,3.5-2.2,7.3-2.2,11.1
		c0,16.4,13.5,29.8,30.3,29.8c3.1,0,6.3-0.5,9.3-1.4c0.1,0.4,0.1,0.8,0.2,1.1c0,0.1,0,0.3,0.1,0.5l0,0l-0.5,0.7c0,0-0.1-0.1-0.1-0.1
		l-15.7,21.9c-2.4,1.7-16.2,11.7-17,19.2c-0.8,8.2-1.6,17.8-1.6,17.8l-0.1,2.1c-1.4,1.2-3.2,1.7-5,1.4c-4.9-0.8-4.9,18-4.9,18
		s-3.3,3-5.5,0.4s-8.2,6.2-8.2,6.2l-37.1,1.6l0,0l-0.8,0l-2-6.2c-0.4-1.4-1.9-2.1-3.3-1.7c-0.2,0.1-0.3,0.1-0.5,0.2l-0.1,0.1
		l-0.3,0.2l-0.1,0.1c-0.1,0.1-0.1,0.1-0.2,0.2l-0.1,0.1l-0.1,0.1l0,0c-0.5,0.6-0.6,1.5-0.4,2.2l1.7,5.3c-7.2,1.4-14.5,5.5-8.5,16.7
		l-30.3-5.6l9.8,8.2l50.5,10.4c-0.7,1.2-0.2,2.9,1.9,5.4c9,10.6,25.4,13.4,32,14.2c1.7,3.9,3.9,7.6,6.5,11l-0.6,10.5
		c0,0-16.7,80.3-19.8,84.3c1.5-1.8,3-3.6,4.2-5.6c-4.8,16.5-11.6,39.1-13.4,42.4c-2.9,5.4-5.5,27.2-2.2,28.7c1,0.4,3.9,0.2,7.9-0.1
		v1.8l-0.2,68.6c0,0,0.8,42.1-1.4,46.1s-2.8,12.4-2.8,12.4s-9,16.6-16.1,23.3c0,0.1-0.1,0.1-0.2,0.1l-0.2-1.6
		c0,0-8.6,10.8-27.5,10.2c0,0-11.4,7.4,5.5,7.8s38.5-0.6,38.5-0.6s15.1-23,27.7-20v17.4h3.9V746c3.6-2.4,6.1-6.2,6.9-10.4
		c0.7-4.4-1-8.9-4.5-11.7c-1.6-1.4-2.4-3.4-2.5-5.5l-0.1,0.1c0-0.3-0.1-0.7-0.1-1.1c-1.1-9-2.5-27.6,2.4-41.3
		c6.7-18.8,8.8-45.1,3.9-60.7c-1.6-5-2.9-10.1-3.9-15.2c-0.1-0.7-0.2-1.3-0.3-1.8c3.3,0.5,6.7,1.1,9.9,2c11.3,3.1,36.2,3.7,57.4,3.5
		c0,0.6,0.1,1.2,0.2,1.8c0.4,4.2,1.2,8.4,2.4,12.5c2.7,8,3.9,43.3,3.9,43.3s3.4,29,1.6,40.8c-1,6.6-2,13.2-2.6,19.8v0.1
		c0,0-5.6,16-9.7,24.7c-0.1,0.2-0.2,0.4-0.3,0.7c-1.1,0.1-2.2,0.3-3.2,0.7c0,0-5.5,11-11,12.8s-3.7,7.8,8.8,5.6s31.2-4,31.2-4
		l0.8-11.2l3.8-4.8l-1,11.2l4.1-0.8l-0.5-13.6l6.2-7.8c0,0,7.6-6.7-3.7-19.9v0.3c-0.1-0.2-0.2-0.4-0.4-0.6v-0.1
		c-1.9-2.9-3.3-8.2-0.6-17.8c4.9-17.2,7.8-32.8,7.8-32.8s10.9-41.9-2.2-61.7h0.6c-1.3-2.8-2.3-5.7-2.8-8.8c-0.1-0.4-0.1-0.7-0.2-1.1
		c9.7-0.6,19.3-2.3,27.1-6.1C1080,586.9,1075.3,487.5,1071.4,471.7z M947.9,402.4v0.2l-2,0.1L947.9,402.4z M941,403.4
		c-0.3,0.1-0.6,0.2-0.9,0.4c-0.9,1.2-1.4,2.6-1.6,4.1l-3.1-0.7c0,0-2.2-0.5-5.3-1l-1.5-1.5C932.7,404.4,937,403.9,941,403.4z"/>
	<polygon class="st13" points="1044.3,743.5 1043.1,757.7 1047.1,756.9 1046.5,741.5 	"/>
	<path class="st14" d="M953.2,676.2c-4.8,13.7-3.5,32.2-2.4,41.2c0.4,3.3,0.8,5.3,0.8,5.3s-7.2,16.4-7.8,17s-21.2,13.2-21.2,13.2
		l-14.4,8.4c0,0-14.6-6.4-7.6-8.6c1.4-0.6,2.7-1.5,3.8-2.6c7-6.7,15.8-23.2,15.8-23.2s0.6-8.4,2.8-12.4s1.4-45.9,1.4-45.9l0.2-68.3
		v-8.9l27.3,0.2c0.2,3,0.6,6,1.2,9c1,5.1,2.3,10.2,3.8,15.2C961.8,631.4,959.8,657.5,953.2,676.2z"/>
	<path class="st3" d="M951.6,722.8c0,0-7.2,16.4-7.8,17s-21.2,13.2-21.2,13.2l-14.4,8.4c0,0-14.6-6.4-7.6-8.6
		c1.4-0.6,2.7-1.5,3.8-2.6l0.6,4.4l4.8-0.2l41-36.9C951.3,720.7,951.6,722.8,951.6,722.8z"/>
	<path class="st13" d="M951.1,718.4l-41.2,37.1l-4.8,0.2l-1-7c0,0-8.4,10.8-27,10.2c0,0-11.2,7.4,5.4,7.8s37.7-0.6,37.7-0.6
		s14.8-23,27.2-20v17.4h3.8v-17.5c3.6-2.4,6-6.2,6.7-10.4c0.7-4.4-1-8.8-4.4-11.7C952,722.4,951.1,720.4,951.1,718.4z"/>
	<path class="st14" d="M1048.1,697.6c-2.7,9.5-1.2,14.8,0.6,17.7v0.1c2.3,3.5,4,7.5,4.8,11.7l0.2,0.9l-18.8,27.3l-10.2,4
		c0,0-16.4-5.6-13.4-7.2c0.8-0.4,1.9-2.5,3.3-5.3c4-8.7,9.5-24.6,9.5-24.6V722c0.6-6.6,1.5-13.2,2.5-19.7
		c1.8-11.8-1.5-40.7-1.5-40.7s-1.2-35.1-3.8-43.1c-1.2-4.1-2-8.2-2.3-12.4c-0.5-5-0.7-9.1-0.7-9.1s10.8-15,30.5,1.2
		c1.6,1.3,3,2.8,4.1,4.5c13.7,19.4,2.7,62.2,2.7,62.2S1052.9,680.4,1048.1,697.6z"/>
	<path class="st3" d="M1053.6,728l-18.8,27.3l-10.2,4c0,0-16.4-5.6-13.4-7.2c0.8-0.4,1.9-2.5,3.3-5.3c6.9-0.1,10.5,6.5,10.5,6.5
		l8.8-1.4c0,0,11.6-22.8,14.2-24.2s0.4-10.4,0.4-10.4v-2.3c0.1,0.1,0.1,0.2,0.2,0.2v0.1c2.3,3.5,4,7.5,4.8,11.7L1053.6,728z"/>
	<path class="st13" d="M1025.7,753.9c0,0-5-9.2-14.6-5.8c0,0-5.4,11-10.8,12.8s-3.6,7.8,8.6,5.6s30.5-4,30.5-4l0.8-11.2l12.4-15.8
		c0,0,7.4-6.7-3.6-19.9v2.3c0,0,2.2,9-0.4,10.4s-14.1,24.2-14.1,24.2L1025.7,753.9z"/>
	<path class="st3" d="M952,591.6c0.2,3,0.6,6,1.2,9c-11.3-1.7-21.7-0.8-28.6-0.3v-8.9L952,591.6z"/>
	<path class="st3" d="M1054.1,605.2c0,0-16,0.8-35.1,0.9c-0.5-5-0.7-9.1-0.7-9.1s10.8-15,30.5,1.2c1.6,1.3,3,2.8,4.1,4.5
		C1053.3,603.5,1053.7,604.4,1054.1,605.2z"/>
	<path class="st13" d="M1054.1,603.4c0,0-70.1,3.4-91.4-2.6s-42.5-0.8-45.7-2.2s-0.6-23.2,2.2-28.5s18.2-59.9,18.2-59.9l14.8-77.1
		l15.6-4.3l1.1-0.3l27.1-7.5l19.9-5.5c0,0,39.5,154.3,36.1,165.7c-1.2,4.4-1.4,8.9-0.6,13.4C1051.8,597.6,1052.7,600.6,1054.1,603.4
		z"/>
	<path class="st15" d="M900.5,380.4c0,0-14,15-3.4,23.4s17.6,0.8,17.6,0.8L900.5,380.4z"/>
	<path class="st3" d="M900.5,380.4c0,0-14,15-3.4,23.4s17.6,0.8,17.6,0.8L900.5,380.4z"/>
	<path class="st14" d="M1013.6,281.8c0,0-1.6,1.6-4.1,3.9c-3.5,3.3-8.7,8.1-13.3,12.1c-6.4,5.6-11.7,9.7-9.8,6.2s1.5-9.6,0.6-15.3
		c-0.1-0.4-0.1-0.8-0.2-1.1c-0.8-4.2-1.8-8.3-3.1-12.4c0,0,10.3-13.4,16.1-18.6c2.1-2,3.6-2.8,3.7-1.4c0.1,1.9,1.5,6,3.2,10.4
		c0,0.1,0.1,0.3,0.2,0.4c1.2,3,2.5,6.1,3.6,8.7C1012.2,278.7,1013.6,281.8,1013.6,281.8z"/>
	<path class="st3" d="M1006.8,265.9c-2,10.6-9.6,19.4-19.9,22.8c-0.8-4.6-1.9-9.1-3.3-13.5c0,0,19.5-25.1,19.8-20.1
		C1003.5,257,1005,261.3,1006.8,265.9z"/>
	<path class="st3" d="M985,295.4l2.5-3.5c0,0,1.7,10.2,7.8,5.7s6.4,33.8,6.4,33.8l-6.6,98.5l-47.6-2.9l1.3-47.6l5.4-24l13.3-34.9
		l7.9-11.5L985,295.4z"/>
	<path class="st13" d="M1001.8,331.9l-6,89.1l-0.6,9.4l-26.5-1.6l-1-0.1l-20-1.2L949,380l5.4-24l13.3-34.9l7.9-11.5l9.4-13.6
		l2.5-3.5c0,0,1.7,10.2,7.8,5.7l0.1-0.1l0,0C1001.5,294.2,1001.8,331.9,1001.8,331.9z"/>
	<path class="st2" d="M955,347.6c0,0-2.4,5-7.2,4.2s-4.8,18-4.8,18s-3.2,3-5.4,0.4s-8,6.2-8,6.2l-36.3,1.6c0,0,16.2,7.4,13,29.8
		c0,0,54.9-3.4,56.7-8.6S955,347.6,955,347.6z"/>
	<path class="st16" d="M955,347.6c0,0-2.4,5-7.2,4.2s-4.8,18-4.8,18s-3.2,3-5.4,0.4s-8,6.2-8,6.2l-36.3,1.6c0,0,16.2,7.4,13,29.8
		c0,0,54.9-3.4,56.7-8.6S955,347.6,955,347.6z"/>
	<polygon class="st2" points="849.4,389.8 859,397.9 937.9,414.5 928.1,404.5 	"/>
	<path class="st2" d="M985.2,298.5c-1.3,2-5.1,12.2-8.2,21.2c-2.6,7.5-4.8,14-4.8,14s-5.1,33.1-7.7,39.1s-1.2,29.4-1.2,29.4
		l-9.7,57.7c0,0-4.4,29.8-11.2,47.5c-6.7,17.5-14.1,25.7-14.4,26c3-4.1,19.3-84,19.3-84l5.4-100.8c0,0,0.8-9.6,1.6-17.8
		s17-19.4,17-19.4l15.6-22.2C988.6,291.3,987.6,294.9,985.2,298.5z"/>
	<path class="st14" d="M944.4,428.1c0,0-23-1-34.1-14.4s25.8-5.3,25.8-5.3l9.6,2.2L944.4,428.1z"/>
	<path class="st3" d="M1051.9,581.2c-1.2,4.4-1.4,8.9-0.6,13.4c-25.1,1.8-51.9-5-51.9-5c-5,4.6-18.2,11.4-18.2,11.4l-7.2-89
		c-4.6-12-6.4-74.9-6.4-74.9s0.4-3.3,1-8.2c0-0.1,0-0.2,0-0.4c1.8-13.8,5.3-39.6,7.1-43.1c2.4-4.8-7.4-17.6-7.4-17.6l4.5-38l0.5-4.6
		c9.4-4.2,16.6-17.6,16.6-17.6l5.5-9.7l0,0c6-3.9,6.3,33.9,6.3,33.9l-6,89.1l19.9-5.5C1015.6,415.6,1055.2,569.8,1051.9,581.2z"/>
	<path class="st2" d="M1077.6,587.4c-27.3,13.6-77.1,1-77.1,1c-5,4.6-18.2,11.4-18.2,11.4l-7.2-89c-4.6-12-6.4-74.9-6.4-74.9
		s5.8-46.9,8.2-51.7c0.7-1.4,0.4-3.5-0.5-5.7c-4.1-10.7-5.6-22.1-4.4-33.5l1.9-16.3l0.5-4.6c9.4-4.2,16.6-17.6,16.6-17.6l5-8.8
		l9.2-16.1l4.4-7.6l0.7,0.7l5.7,5.1c0,0,2.4,2,6,5c7.8,6.6,21.4,18.2,28.3,25.3c6.1,6.3,8.1,30.6,8.6,48.9
		c0.4,12.1,0.2,21.5,0.2,21.5c-6.2,10.2,10,92,10,92C1073,488.4,1077.6,587.4,1077.6,587.4z"/>
	<path class="st16" d="M1025.1,306.3c0,0-18.8,35.7-16.6,49.3s8.4,29,5.4,32.5c-2.1,2.8-5.3,4.4-8.8,4.4c-3,0.2-11,5.8-11,6.4
		s-7.4,0.6-14,3.4s-16.4,4.4-16.4,4.4s-19-0.6-20.8,1.2s-3.6,12.6,0.2,21.2s8,15,11.2,16.2s23.4-5.6,39.7-7.2s34.1-14.6,34.1-14.6
		s19.6-7,23-18.8s-4.2-76.5-4.2-76.5S1041.3,298.1,1025.1,306.3z"/>
	<path class="st16" d="M1022.7,303.3c0,0-18.8,35.7-16.6,49.3s8.4,29,5.4,32.5c-2.1,2.8-5.3,4.4-8.8,4.4c-3,0.2-11,5.8-11,6.4
		s-7.4,0.6-14,3.4s-16.4,4.4-16.4,4.4s-19-0.6-20.8,1.2s-3.6,12.6,0.2,21.2s8,15,11.2,16.2s23.4-5.6,39.7-7.2s34.1-14.6,34.1-14.6
		s19.6-7,22.9-18.8c3.4-11.8-4.2-76.5-4.2-76.5S1038.9,295.1,1022.7,303.3z"/>
	<path class="st2" d="M1024.5,304.5c0,0-18.8,35.7-16.6,49.3s8.4,29,5.4,32.5c-2.1,2.8-5.3,4.4-8.8,4.4c-3,0.2-11,5.8-11,6.4
		s-7.4,0.6-14,3.4s-16.4,4.4-16.4,4.4s-19-0.6-20.8,1.2s-3.6,12.6,0.2,21.2s8,15,11.2,16.2s23.4-5.6,39.7-7.2s34.1-14.6,34.1-14.6
		s19.6-7,23-18.8c3.4-11.8-4.1-76.5-4.1-76.5S1040.7,296.4,1024.5,304.5z"/>
	<path class="st3" d="M1024.1,400.4c0,0-15-3-9.8,2s5.2,9.4,11.6,9.2C1032.3,411.3,1024.1,400.4,1024.1,400.4z"/>
	<path class="st3" d="M1049.5,508c0,0-6.8,4.6,6.2,15.2S1049.5,508,1049.5,508z"/>
	<path class="st3" d="M1036.5,545.7c0,0.6-2.4,22,6.6,27.3C1052.1,578.4,1036.5,545.7,1036.5,545.7z"/>
	<path class="st14" d="M893.9,378c-7.2,0.2-22.9,2.5-14.8,17.6c7.2,13.4,19.2,4.4,26-2.4C903.5,386.9,899.5,381.4,893.9,378z"/>
	<path class="st14" d="M905.9,392.4L905.9,392.4z"/>
	<path class="st14" d="M905.3,393.1l0.3-0.3L905.3,393.1z"/>
	<path class="st3" d="M1022.1,285.4c-7.7,5.2-14.1,9.7-15.4,10.6c-3.4,2.5-10,17.5-14.2,25.2c-3.4,6.1-14.3,7.7-18.5,8.1l0.5-4.6
		c9.4-4.2,16.6-17.6,16.6-17.6l18.6-32.5l6.4,5.8C1016.1,280.4,1018.5,282.4,1022.1,285.4z"/>
	<path class="st17" d="M1022.1,284.8c-7.7,5.2-14.1,9.7-15.4,10.6c-3.4,2.5-10,17.5-14.2,25.1c-3.4,6.1-14.3,7.7-18.5,8.1l0.5-4.6
		c9.4-4.2,16.6-17.6,16.6-17.6l18.6-32.5l6.4,5.8C1016.1,279.7,1018.5,281.7,1022.1,284.8z"/>
	<path class="st14" d="M1007.3,259.3c0,6-1.8,11.9-5.2,16.8c-9.3,13.5-27.7,16.9-41.2,7.6c-13.5-9.3-16.9-27.7-7.6-41.2
		s27.7-16.9,41.2-7.6C1002.5,240.4,1007.3,249.5,1007.3,259.3z"/>
	<path class="st3" d="M1059.1,359c-4.1-2.5-7.4-6.1-9.6-10.3c-1.7-3.3-2.8-7.1-5.6-9.5c-2.6-2.1-6-2.6-9.2-3.5
		c-10.5-3.1-19.3-12.7-19.7-23.7c-0.2-5.2,1.5-10.3,0.7-15.4c-0.4-2.9-1.6-5.6-3.3-8c-0.9-1.1-1.8-2.1-2.9-3.1
		c-1.4-1.3-2.9-2.6-4.2-4c-0.8-0.9-1.5-1.8-2.1-2.9c-0.5-0.8-0.9-1.7-1.2-2.6c-2-6.1-0.2-13.4-2.4-19.6l-0.1-0.3
		c-0.8-2.2-2.5-4.4-4.9-4.6s-4.4,1.8-6.6,2.6c-4.7,1.8-9.8-1.3-13.7-4.4s-8.3-6.8-13.3-6.1c-3.3,0.5-5.9,2.7-8.9,3.9
		c-0.7,0.3-1.4,0.5-2.1,0.6c6.1-15.2,23.4-22.6,38.6-16.5c11.2,4.5,18.6,15.4,18.6,27.5c0,2.1-0.2,4.2-0.7,6.2
		c0,0.1,0.1,0.3,0.2,0.4c1.2,3,2.5,6.1,3.6,8.7l5.7,5.1c0,0,2.4,2,6,5c7.8,6.6,21.4,18.2,28.3,25.3
		C1056.6,316.4,1058.5,340.7,1059.1,359z"/>
	<path class="st18" d="M951.9,229.4c1.4-2.9,2.1-6.2,3.8-8.9c2.5-4,6.9-6.6,11.4-8.1c11.8-4,36.6-9.9,44,0c1.5,2,2.7,4.2,4.7,5.6
		c1.5,1,3.4,1.5,5.1,2.3c4.7,2.2,7.8,7.1,9.4,12s2.1,10.2,3.3,15.3c1.5,6.5,4.2,12.7,6.8,18.9c3.1,7.3,6.4,14.8,12.4,19.9
		c8.2,7,10,16.9,17.6,24.6c9,9.1,8.7,24.2,4.1,36.1c-0.6,1.6-1.3,3.2-1.1,4.9s1.5,3.2,2.7,4.5l4.9,5.5c-11.6,2.8-24.8-3.3-30.2-13.9
		c-1.7-3.3-2.8-7.1-5.6-9.5c-2.6-2.1-6-2.6-9.2-3.5c-10.5-3.1-19.3-12.7-19.7-23.7c-0.2-5.1,1.5-10.3,0.7-15.4
		c-0.4-2.9-1.6-5.7-3.3-8c-2.8-3.6-6.9-6-9.1-10c-3.8-6.7-0.9-15.4-3.6-22.6c-0.8-2.2-2.5-4.4-4.9-4.6s-4.4,1.8-6.6,2.6
		c-4.7,1.8-9.7-1.3-13.7-4.4s-8.3-6.8-13.3-6.1c-3.3,0.5-5.9,2.7-8.9,3.9c-2.2,0.9-6.8,1.6-8.7-0.3
		C940.6,242.8,950.2,232.9,951.9,229.4z"/>
	<path class="st3" d="M1053.5,344.8c-1.7-3.3-2.8-7.1-5.6-9.4c-2.6-2.1-6-2.6-9.2-3.5c-10.5-3.1-19.3-12.7-19.7-23.7
		c-0.2-5.1,1.5-10.3,0.7-15.4c-0.4-2.9-1.6-5.6-3.3-8c-2.8-3.6-6.9-6-9.1-10c-3.8-6.7-0.9-15.4-3.7-22.6c-0.8-2.2-2.5-4.4-4.9-4.6
		s-4.4,1.8-6.6,2.7c-4.7,1.8-9.8-1.3-13.7-4.4s-8.3-6.8-13.3-6.1c-3.3,0.5-5.9,2.7-8.9,3.9c-2.2,0.9-6.8,1.6-8.8-0.2
		c-4.1-4,5.5-13.9,7.2-17.4c1.4-2.9,2.1-6.2,3.9-8.9c0.1-0.1,0.2-0.3,0.3-0.5c-1.3,1.1-2.4,2.3-3.3,3.7c-1.7,2.8-2.4,6-3.8,8.9
		c-1.7,3.5-11.3,13.4-7.2,17.4c2,1.9,6.5,1.1,8.7,0.3c3-1.2,5.6-3.4,8.9-3.9c5-0.7,9.4,2.9,13.3,6.1s9,6.3,13.7,4.4
		c2.2-0.9,4.2-2.8,6.6-2.6s4,2.4,4.9,4.6c2.7,7.2-0.2,15.9,3.6,22.6c2.2,3.9,6.4,6.4,9.1,10c1.8,2.3,2.9,5.1,3.3,8
		c0.7,5.1-0.9,10.2-0.7,15.4c0.3,11,9.2,20.6,19.7,23.7c3.2,0.9,6.6,1.4,9.2,3.5c2.9,2.4,4,6.1,5.6,9.5
		c5.4,10.7,18.6,16.8,30.2,13.9l-2.3-2.6C1068.3,359.6,1058.1,353.8,1053.5,344.8z"/>
	<path class="st3" d="M984.6,299.1c-1.3,2-5.1,12.2-8.2,21.2c-2.9-1.1-5.6-8.4-5.6-8.4l15.6-22.2C988,291.9,987,295.5,984.6,299.1z"
		/>
	<path class="st17" d="M985.2,298.5c-1.3,2-5.1,12.2-8.2,21.2c-2.9-1.1-5.6-8.4-5.6-8.4l15.6-22.2
		C988.6,291.3,987.6,294.9,985.2,298.5z"/>
	<path class="st19" d="M894.4,400.7l-8.7-27.3c-0.4-1.3,0.3-2.8,1.6-3.2c0,0,0,0,0,0l0,0c1.3-0.4,2.8,0.3,3.2,1.7l8.7,27.3l-0.9,5.7
		L894.4,400.7z"/>
	<path class="st20" d="M886.5,371L886.5,371c1.3-0.4,2.8,0.3,3.2,1.7l8.7,27.3l-0.7,4.3l0.6,0.7l0.9-5.7l-8.7-27.3
		c-0.4-1.3-1.9-2.1-3.2-1.7l0,0c-0.5,0.2-1,0.5-1.3,1C886.2,371.1,886.3,371,886.5,371z"/>
	<polygon class="st21" points="894.4,400.7 899.2,399.1 898.5,403.8 898.4,404.9 896.9,403.4 	"/>
	<path class="st22" d="M896.9,403.4c0.1-0.1,0.2-0.2,0.3-0.3c0.1-0.1,0.3-0.1,0.5,0c0.1,0.1,0.1,0.2,0.2,0.3
		c0.1,0.2,0.4,0.4,0.6,0.4l-0.2,1L896.9,403.4z"/>
	<path class="st14" d="M885.6,383.1c0,0,17.4-0.1,13.3,7.3s-10.5,8.3-10.5,8.3L885.6,383.1z"/>
	<path class="st5" d="M777.6,51.4h-0.8c-29.8,0-56.2,15.8-71.4,39.1c-15.2-23.3-41.6-39.1-71.4-39.1h-0.8
		c-46.6,0.4-84.2,38.3-84.2,84.9c0,27.8,12.2,67.3,35.9,99.7c45.2,61.9,120.4,116,120.4,116s75.2-54.1,120.4-116
		c23.8-32.5,35.9-71.9,35.9-99.7C861.8,89.8,824.2,51.9,777.6,51.4z M766.9,240.9c-7,0-13.2-4.3-15.7-10.8h-17.8
		c-2.4,0-4.5-1.6-5.3-3.8l-5.5-16.5l-17.3,60.6c-0.7,2.4-2.9,4-5.4,4h-0.3c-2.6-0.1-4.8-2.1-5.2-4.6l-17.9-107.5l-13.1,63.6
		c-0.6,2.5-2.8,4.2-5.4,4.2h-25.1c-3.1,0.1-5.7-2.3-5.8-5.3c-0.1-3.1,2.3-5.7,5.3-5.8c0.2,0,0.3,0,0.5,0h20.7l18.5-85.5
		c0.7-3,3.8-4.9,6.8-4.1c2.2,0.5,3.9,2.4,4.2,4.6l18.2,109.6l15.5-54.2c0.7-2.3,2.8-4,5.2-4h0.1c2.4,0,4.5,1.5,5.3,3.8l9.9,29.8H751
		c2.9-8.8,12.4-13.6,21.2-10.7c8.8,2.9,13.6,12.4,10.7,21.2C780.6,236.3,774.2,240.9,766.9,240.9L766.9,240.9z"/>
</g>
</svg>
